<svg id="OBJECTS" xmlns="http://www.w3.org/2000/svg" viewBox="0 0 147.33 171.91"><defs><style>.cls-1{fill:#06f;}</style></defs><path class="cls-1" d="M265.14,97.76v9.41a44.81,44.81,0,0,1,10.05,79.38A8.49,8.49,0,0,1,262,179.42V168H238v11.2a8.5,8.5,0,0,1-13.24,7.08,44.79,44.79,0,0,1,10.14-79V97.84a53.78,53.78,0,0,0-38.5,51.56c0,29.29,27.86,67.83,43.48,87.13a13.3,13.3,0,0,0,20.64,0c15.63-19.16,43.42-57.43,43.42-87.17A53.79,53.79,0,0,0,265.14,97.76Z" transform="translate(-176.34 -69.55)"/><path class="cls-1" d="M250,243.38" transform="translate(-176.34 -69.55)"/><path class="cls-1" d="M255.71,227.84A6,6,0,0,1,250,232h0a6,6,0,0,1-5.71-4.18L238,219.3V95.82a47.85,47.85,0,0,1,1.37-11.42,45.76,45.76,0,0,1,4-10.56h0a7.31,7.31,0,0,1,13.32,0h0a45.76,45.76,0,0,1,4,10.56A47.85,47.85,0,0,1,262,95.82V219.3Z" transform="translate(-176.34 -69.55)"/><path class="cls-1" d="M258.71,113.38l61.13,46.7a9.76,9.76,0,0,1,3.82,7.74v4.67l-65-19.7Z" transform="translate(-176.34 -69.55)"/><path class="cls-1" d="M241.29,113.38l-61.13,46.7a9.76,9.76,0,0,0-3.82,7.74v4.67l64.95-19.7Z" transform="translate(-176.34 -69.55)"/><path class="cls-1" d="M187.32,164.37h0a4.14,4.14,0,0,0,4.14-4.15v-7.55a4.14,4.14,0,0,0-4.14-4.15h0a4.15,4.15,0,0,0-4.15,4.15v7.55A4.15,4.15,0,0,0,187.32,164.37Z" transform="translate(-176.34 -69.55)"/><path class="cls-1" d="M312.68,164.37h0a4.15,4.15,0,0,0,4.15-4.15v-7.55a4.15,4.15,0,0,0-4.15-4.15h0a4.14,4.14,0,0,0-4.14,4.15v7.55A4.14,4.14,0,0,0,312.68,164.37Z" transform="translate(-176.34 -69.55)"/><path class="cls-1" d="M222.75,137.76h0a4.14,4.14,0,0,0,4.15-4.14v-7.55a4.15,4.15,0,0,0-4.15-4.15h0a4.14,4.14,0,0,0-4.14,4.15v7.55A4.14,4.14,0,0,0,222.75,137.76Z" transform="translate(-176.34 -69.55)"/><path class="cls-1" d="M277.25,137.76h0a4.14,4.14,0,0,0,4.14-4.14v-7.55a4.14,4.14,0,0,0-4.14-4.15h0a4.15,4.15,0,0,0-4.15,4.15v7.55A4.14,4.14,0,0,0,277.25,137.76Z" transform="translate(-176.34 -69.55)"/></svg>