<svg id="OBJECTS" xmlns="http://www.w3.org/2000/svg" viewBox="0 0 227.46 41.45"><defs><style>.cls-1{fill:#242a37;}</style></defs><path class="cls-1" d="M139,281.32a12.54,12.54,0,0,0,8.37,3.4c2.43,0,4.85-1.27,4.85-3.63,0-5.37-15-4.28-15-13.8,0-5.31,4.73-8.31,10.56-8.31,6.41,0,9.41,3.23,9.41,3.23L155,266.42a10.67,10.67,0,0,0-7.21-2.59c-2.43,0-4.79,1-4.79,3.58,0,5.25,15,4.09,15,13.68,0,4.84-4.15,8.48-10.56,8.48a15.69,15.69,0,0,1-11.08-4.27Z" transform="translate(-136.33 -248.13)"/><path class="cls-1" d="M165.76,264.58H162v-4.51h4v-8.42h5.42v8.42h7v4.51h-7v13c0,5.83,4.1,6.58,6.24,6.58a6.34,6.34,0,0,0,1.32-.12v5a14.61,14.61,0,0,1-2,.12c-3.75,0-11.2-1.15-11.2-10.91Z" transform="translate(-136.33 -248.13)"/><path class="cls-1" d="M185.21,259.67h5.43v5.08a20.1,20.1,0,0,1-.12,2.19h.12c1.33-4.27,4.73-7.62,9.24-7.62a9.51,9.51,0,0,1,1.44.12V265a8.22,8.22,0,0,0-1.62-.17c-3.58,0-6.87,2.54-8.2,6.87a18,18,0,0,0-.69,5.25v11.95h-5.6Z" transform="translate(-136.33 -248.13)"/><path class="cls-1" d="M222.1,270.64h1.27v-.52c0-4.79-2.72-6.41-6.41-6.41a14.82,14.82,0,0,0-8.14,2.83l-2.31-4.1A18.32,18.32,0,0,1,217.42,259c7.39,0,11.55,4,11.55,11.43v18.47h-5.2v-2.77a21.07,21.07,0,0,1,.12-2.31h-.12a10.11,10.11,0,0,1-9.35,5.77c-5,0-9.93-3.06-9.93-8.89C204.49,271,217.19,270.64,222.1,270.64Zm-6.47,14.43c4.73,0,7.79-5,7.79-9.29v-.93H222c-4.21,0-11.83.29-11.83,5.54C210.15,282.76,212,285.07,215.63,285.07Z" transform="translate(-136.33 -248.13)"/><path class="cls-1" d="M233.93,259.67h5.94l6.06,20.49c.46,1.5.7,3.12.75,3.12h.12a30.77,30.77,0,0,1,.75-3.12l6.35-20.43H259l6.29,20.43c.46,1.5.81,3.12.81,3.12h.11a23.54,23.54,0,0,1,.69-3.12l6.12-20.49H279l-9.41,29.21h-6.17l-6.07-18.76c-.46-1.5-.8-3.18-.8-3.18h-.12s-.35,1.68-.81,3.18l-6,18.76h-6.24Z" transform="translate(-136.33 -248.13)"/><path class="cls-1" d="M284.31,248.13h5.6v14.95c0,1.38-.11,2.42-.11,2.42h.11a11.8,11.8,0,0,1,10.8-6.52c6.86,0,10,3.75,10,11.2v18.7h-5.6V271.45c0-4.1-.87-7.33-5.54-7.33a9.67,9.67,0,0,0-9.24,7.21,13.93,13.93,0,0,0-.46,3.87v13.68h-5.6Z" transform="translate(-136.33 -248.13)"/><path class="cls-1" d="M334.35,270.64h1.28v-.52c0-4.79-2.72-6.41-6.41-6.41a14.78,14.78,0,0,0-8.14,2.83l-2.31-4.1A18.32,18.32,0,0,1,329.68,259c7.39,0,11.54,4,11.54,11.43v18.47H336v-2.77a23,23,0,0,1,.11-2.31H336a10.11,10.11,0,0,1-9.35,5.77c-5,0-9.93-3.06-9.93-8.89C316.75,271,329.45,270.64,334.35,270.64Zm-6.46,14.43c4.73,0,7.79-5,7.79-9.29v-.93h-1.44c-4.21,0-11.83.29-11.83,5.54C322.41,282.76,324.25,285.07,327.89,285.07Z" transform="translate(-136.33 -248.13)"/><path class="cls-1" d="M350.63,264.58h-3.81v-4.51h4v-8.42h5.43v8.42h7v4.51h-7v13c0,5.83,4.1,6.58,6.23,6.58a6.51,6.51,0,0,0,1.33-.12v5a14.79,14.79,0,0,1-2,.12c-3.75,0-11.2-1.15-11.2-10.91Z" transform="translate(-136.33 -248.13)"/></svg>